<svg width="760" height="76" viewBox="0 0 760 76" xmlns="http://www.w3.org/2000/svg">
  <defs>
    <linearGradient id="bg2" x1="0%" y1="0%" x2="100%" y2="100%">
      <stop offset="0%" stop-color="#0d0b14"/>
      <stop offset="100%" stop-color="#161129"/>
    </linearGradient>
    <linearGradient id="text2" x1="0%" y1="0%" x2="100%" y2="0%">
      <stop offset="0%" stop-color="#a78bfa"/>
      <stop offset="70%" stop-color="#7c3aed"/>
      <stop offset="100%" stop-color="#f1c40f"/>
    </linearGradient>
    <linearGradient id="ring2" x1="0%" y1="0%" x2="100%" y2="100%">
      <stop offset="0%" stop-color="#a78bfa"/>
      <stop offset="100%" stop-color="#7c3aed"/>
    </linearGradient>
  </defs>

  <rect x="0.5" y="0.5" width="759" height="75" rx="14" fill="url(#bg2)" stroke="#2a2440" stroke-width="1"/>

  <circle cx="46" cy="38" r="22" fill="none" stroke="url(#ring2)" stroke-width="1.6" opacity="0.9"/>
  <g transform="translate(46,38)" stroke="url(#ring2)" fill="none" stroke-width="1.7" stroke-linecap="round" stroke-linejoin="round">
    <circle cx="0" cy="0" r="4.5"/>
    <path d="M0 -11 L0 -7 M0 7 L0 11 M-11 0 L-7 0 M7 0 L11 0
             M-7.8 -7.8 L-5.2 -5.2 M5.2 5.2 L7.8 7.8
             M7.8 -7.8 L5.2 -5.2 M-5.2 5.2 L-7.8 7.8"/>
  </g>

  <text x="86" y="46" font-family="Segoe UI, Helvetica, Arial, sans-serif" font-size="26" font-weight="800" letter-spacing="1.5" fill="url(#text2)">CONFIGURATION</text>

  <rect x="86" y="56" width="46" height="2.5" rx="1.25" fill="url(#text2)" opacity="0.75"/>
</svg>
